<svg width="120" height="27" viewBox="0 0 120 27" fill="none" xmlns="http://www.w3.org/2000/svg">
<g clip-path="url(#clip0_1731_1564)">
<path d="M11.6532 2.79853V0.848528C11.6532 0.692528 11.5128 0.572928 11.362 0.588528C5.31955 1.28533 0.691553 6.00173 -4.72134e-05 11.9505C-0.0208472 12.1013 0.103953 12.2417 0.259953 12.2417H2.27755C2.40235 12.2417 2.50635 12.1481 2.52195 12.0233C3.15115 7.35373 6.70795 3.68253 11.4348 3.04293C11.5596 3.02733 11.6532 2.92333 11.6532 2.79853Z" fill="#F4F4F4"/>
<path d="M14.1699 24.2015V26.1515C14.1699 26.3075 14.3051 26.4271 14.4611 26.4115C20.5087 25.7199 25.1315 21.0035 25.8231 15.0495C25.8387 14.8987 25.7191 14.7583 25.5631 14.7583H23.5455C23.4207 14.7583 23.3167 14.8519 23.3011 14.9767C22.6771 19.6515 19.1203 23.3227 14.3883 23.9571C14.2635 23.9727 14.1699 24.0767 14.1699 24.2015Z" fill="#F4F4F4"/>
<path d="M23.5403 12.2417H25.5579C25.7139 12.2417 25.8387 12.1013 25.8179 11.9505C25.1315 6.00173 20.5035 1.28533 14.4611 0.588528C14.3103 0.572928 14.1699 0.692528 14.1699 0.848528V2.79853C14.1699 2.92333 14.2635 3.02733 14.3883 3.04293C19.1151 3.68253 22.6771 7.34853 23.3011 12.0233C23.3167 12.1481 23.4207 12.2417 23.5455 12.2417" fill="#F4F4F4"/>
<path d="M2.28283 14.7583H0.260027C0.104027 14.7583 -0.0155732 14.8935 2.68249e-05 15.0495C0.691627 21.0035 5.31443 25.7199 11.362 26.4115C11.5128 26.4271 11.6532 26.3075 11.6532 26.1515V24.2015C11.6532 24.0767 11.5596 23.9727 11.4348 23.9571C6.70803 23.3175 3.14603 19.6515 2.52203 14.9767C2.50643 14.8519 2.40243 14.7583 2.27763 14.7583" fill="#F4F4F4"/>
<path d="M78.3379 2.79853V0.848528C78.3379 0.692528 78.1975 0.572928 78.0467 0.588528C71.9991 1.28013 67.3763 5.99653 66.6847 11.9505C66.6691 12.1013 66.7887 12.2417 66.9447 12.2417H68.9623C69.0871 12.2417 69.1911 12.1481 69.2067 12.0233C69.8307 7.34853 73.3875 3.67733 78.1195 3.04293C78.2443 3.02733 78.3379 2.92333 78.3379 2.79853Z" fill="#F4F4F4"/>
<path d="M90.2252 12.2417H92.2428C92.3988 12.2417 92.5236 12.1013 92.5028 11.9505C91.8112 5.99653 87.1884 1.28013 81.1408 0.588528C80.99 0.572928 80.8496 0.692528 80.8496 0.848528V2.79853C80.8496 2.92333 80.9432 3.02733 81.068 3.04293C85.7948 3.68253 89.3568 7.34853 89.9808 12.0233C89.9964 12.1481 90.1004 12.2417 90.2252 12.2417Z" fill="#F4F4F4"/>
<path d="M68.9623 14.7583H66.9447C66.7887 14.7583 66.6691 14.8935 66.6847 15.0495C67.3763 21.0035 71.9991 25.7199 78.0467 26.4115C78.1975 26.4271 78.3379 26.3075 78.3379 26.1515V24.2015C78.3379 24.0767 78.2443 23.9727 78.1195 23.9571C73.3927 23.3175 69.8307 19.6515 69.2067 14.9767C69.1911 14.8519 69.0871 14.7583 68.9623 14.7583Z" fill="#F4F4F4"/>
<path d="M80.8547 24.2015V26.1515C80.8547 26.3075 80.9899 26.4271 81.1459 26.4115C87.1935 25.7199 91.8163 21.0035 92.5079 15.0495C92.5287 14.8987 92.4039 14.7583 92.2479 14.7583H90.2303C90.1055 14.7583 90.0015 14.8519 89.9859 14.9767C89.3619 19.6515 85.8051 23.3227 81.0731 23.9571C80.9483 23.9727 80.8547 24.0767 80.8547 24.2015Z" fill="#F4F4F4"/>
<path d="M110.516 11.992C107.104 10.8792 104.952 10.016 104.952 7.286C104.952 4.556 107.141 2.9388 110.157 2.9388C113.339 2.9388 115.253 4.7016 116.225 6.8544C116.288 6.9896 116.444 7.0468 116.574 6.974L118.243 6.0432C118.362 5.9756 118.409 5.83 118.357 5.7052C117.021 2.8244 114.187 0.5 110.162 0.5C106.137 0.5 102.44 2.9752 102.44 7.3952C102.44 11.8152 106.392 13.1048 110.484 14.4672C114.182 15.6892 116.662 16.62 116.662 19.532C116.662 22.2256 114.546 24.056 110.734 24.056C106.922 24.056 104.572 22.2464 103.61 19.3968C103.558 19.246 103.386 19.1732 103.246 19.2564L101.546 20.2496C101.436 20.312 101.39 20.4472 101.431 20.5668C102.778 24.2536 106.148 26.5 110.698 26.5C115.726 26.5 119.174 23.77 119.174 19.4592C119.174 14.7896 115.081 13.5 110.521 11.992" fill="#F4F4F4"/>
<path d="M58.7757 2.788C58.8745 2.6892 58.8745 2.528 58.7757 2.4292L57.3249 0.978397C57.2261 0.879597 57.0649 0.879597 56.9661 0.978397L47.6997 10.2448C47.6009 10.3436 47.6009 10.5048 47.6997 10.6036L49.1505 12.0544C49.2493 12.1532 49.4105 12.1532 49.5093 12.0544L58.7757 2.788Z" fill="#F4F4F4"/>
<path d="M58.7755 24.1808L48.0791 13.4844L46.2643 11.6696L35.5731 0.978397C35.4743 0.879597 35.3131 0.879597 35.2143 0.978397L33.7583 2.4344C33.6595 2.5332 33.6595 2.6944 33.7583 2.7932L44.4547 13.4896L33.7583 24.186C33.6595 24.2848 33.6595 24.446 33.7583 24.5448L35.2091 25.9956C35.3079 26.0944 35.4691 26.0944 35.5679 25.9956L46.2643 15.2992L56.9607 25.9956C57.0595 26.0944 57.2207 26.0944 57.3195 25.9956L58.7703 24.5448C58.8691 24.446 58.8691 24.2848 58.7703 24.186" fill="#F4F4F4"/>
</g>
<defs>
<clipPath id="clip0_1731_1564">
<rect width="119.168" height="26" fill="white" transform="translate(0 0.5)"/>
</clipPath>
</defs>
</svg>
