<svg width="110" height="24" viewBox="0 0 110 24" fill="none" xmlns="http://www.w3.org/2000/svg">
<g clip-path="url(#clip0_4_157)">
<path d="M10.8769 2.11577V0.320683C10.8769 0.177077 10.7476 0.0669782 10.6088 0.0813389C5.04642 0.722782 0.786087 5.06449 0.14943 10.5407C0.130283 10.6795 0.245168 10.8088 0.388775 10.8088H2.24609C2.36097 10.8088 2.45671 10.7226 2.47107 10.6077C3.05029 6.30908 6.32452 2.92954 10.6758 2.34075C10.7907 2.32639 10.8769 2.23065 10.8769 2.11577Z" fill="#121213"/>
<path d="M13.1937 21.8187V23.6138C13.1937 23.7574 13.3182 23.8675 13.4618 23.8532C19.0289 23.2165 23.2845 18.8748 23.9211 13.3938C23.9355 13.255 23.8254 13.1257 23.6818 13.1257H21.8245C21.7096 13.1257 21.6139 13.2119 21.5995 13.3268C21.0251 17.6302 17.7508 21.0097 13.3948 21.5937C13.2799 21.6081 13.1937 21.7038 13.1937 21.8187Z" fill="#121213"/>
<path d="M21.8197 10.8088H23.677C23.8206 10.8088 23.9355 10.6795 23.9164 10.5407C23.2845 5.06449 19.0242 0.722782 13.4618 0.0813389C13.323 0.0669782 13.1937 0.177077 13.1937 0.320683V2.11577C13.1937 2.23065 13.2799 2.32639 13.3948 2.34075C17.7461 2.92954 21.0251 6.3043 21.5995 10.6077C21.6139 10.7226 21.7096 10.8088 21.8245 10.8088" fill="#121213"/>
<path d="M2.25078 13.1257H0.388677C0.24507 13.1257 0.134971 13.2502 0.149332 13.3938C0.785989 18.8748 5.04153 23.2165 10.6087 23.8532C10.7475 23.8675 10.8768 23.7574 10.8768 23.6138V21.8187C10.8768 21.7038 10.7906 21.6081 10.6757 21.5937C6.32442 21.005 3.0454 17.6302 2.47097 13.3268C2.45661 13.2119 2.36088 13.1257 2.24599 13.1257" fill="#121213"/>
<path d="M72.2638 2.11577V0.320683C72.2638 0.177077 72.1346 0.0669782 71.9958 0.0813389C66.4286 0.717995 62.1731 5.05971 61.5364 10.5407C61.5221 10.6795 61.6322 10.8088 61.7758 10.8088H63.6331C63.748 10.8088 63.8437 10.7226 63.8581 10.6077C64.4325 6.3043 67.7067 2.92475 72.0628 2.34075C72.1777 2.32639 72.2638 2.23065 72.2638 2.11577Z" fill="#121213"/>
<path d="M83.2067 10.8088H85.064C85.2076 10.8088 85.3225 10.6795 85.3034 10.5407C84.6667 5.05971 80.4111 0.717995 74.844 0.0813389C74.7052 0.0669782 74.5759 0.177077 74.5759 0.320683V2.11577C74.5759 2.23065 74.6621 2.32639 74.777 2.34075C79.1283 2.92954 82.4073 6.3043 82.9817 10.6077C82.9961 10.7226 83.0918 10.8088 83.2067 10.8088Z" fill="#121213"/>
<path d="M63.6331 13.1257H61.7758C61.6322 13.1257 61.5221 13.2502 61.5364 13.3938C62.1731 18.8748 66.4286 23.2165 71.9958 23.8532C72.1346 23.8675 72.2638 23.7574 72.2638 23.6138V21.8187C72.2638 21.7038 72.1777 21.6081 72.0628 21.5937C67.7115 21.005 64.4325 17.6302 63.8581 13.3268C63.8437 13.2119 63.748 13.1257 63.6331 13.1257Z" fill="#121213"/>
<path d="M74.5808 21.8187V23.6138C74.5808 23.7574 74.7053 23.8675 74.8489 23.8532C80.416 23.2165 84.6716 18.8748 85.3082 13.3938C85.3274 13.255 85.2125 13.1257 85.0689 13.1257H83.2116C83.0967 13.1257 83.0009 13.2119 82.9866 13.3268C82.4122 17.6302 79.1379 21.0097 74.7819 21.5937C74.667 21.6081 74.5808 21.7038 74.5808 21.8187Z" fill="#121213"/>
<path d="M101.885 10.579C98.745 9.55463 96.7632 8.76001 96.7632 6.24689C96.7632 3.73377 98.7785 2.24505 101.555 2.24505C104.484 2.24505 106.246 3.86781 107.141 5.84958C107.199 5.97404 107.342 6.0267 107.462 5.95968L108.999 5.10283C109.109 5.0406 109.152 4.90656 109.104 4.79168C107.874 2.13974 105.265 0 101.56 0C97.8547 0 94.4512 2.27856 94.4512 6.34742C94.4512 10.4163 98.0892 11.6034 101.856 12.8576C105.26 13.9825 107.543 14.8394 107.543 17.52C107.543 19.9996 105.595 21.6846 102.086 21.6846C98.5775 21.6846 96.4138 20.0188 95.5282 17.3956C95.4804 17.2567 95.3224 17.1897 95.1931 17.2663L93.6278 18.1806C93.5273 18.2381 93.4842 18.3625 93.5225 18.4726C94.7623 21.8665 97.8642 23.9345 102.053 23.9345C106.682 23.9345 109.855 21.4213 109.855 17.453C109.855 13.1544 106.088 11.9672 101.89 10.579" fill="#121213"/>
<path d="M54.2556 2.10624C54.3466 2.01529 54.3466 1.8669 54.2556 1.77595L52.9201 0.440406C52.8291 0.349455 52.6807 0.349455 52.5898 0.440406L44.0595 8.97064C43.9686 9.0616 43.9686 9.20999 44.0595 9.30094L45.3951 10.6365C45.486 10.7274 45.6344 10.7274 45.7254 10.6365L54.2556 2.10624Z" fill="#121213"/>
<path d="M54.2557 21.7995L44.409 11.9529L42.7384 10.2823L32.8966 0.440406C32.8056 0.349455 32.6572 0.349455 32.5663 0.440406L31.2259 1.78074C31.135 1.87169 31.135 2.02008 31.2259 2.11103L41.0726 11.9577L31.2259 21.8043C31.135 21.8953 31.135 22.0436 31.2259 22.1346L32.5615 23.4701C32.6524 23.5611 32.8008 23.5611 32.8918 23.4701L42.7384 13.6235L52.585 23.4701C52.676 23.5611 52.8244 23.5611 52.9153 23.4701L54.2509 22.1346C54.3418 22.0436 54.3418 21.8953 54.2509 21.8043" fill="#121213"/>
</g>
<defs>
<clipPath id="clip0_4_157">
<rect width="109.701" height="23.9345" fill="white" transform="translate(0.149414)"/>
</clipPath>
</defs>
</svg>
