<svg width="56" height="56" viewBox="0 0 56 56" fill="none" xmlns="http://www.w3.org/2000/svg">
<path d="M54.9995 28.0059C54.9995 42.9175 42.9112 55.0059 27.9995 55.0059C13.0878 55.0059 0.999512 42.9175 0.999512 28.0059C0.999512 13.0942 13.0878 1.00586 27.9995 1.00586C42.9112 1.00586 54.9995 13.0942 54.9995 28.0059Z" fill="white" fill-opacity="0.3"/>
<path d="M23.4995 37.0059V19.0059L36.9995 28.0059L23.4995 37.0059Z" fill="white" fill-opacity="0.3"/>
<path d="M54.9995 28.0059C54.9995 42.9175 42.9112 55.0059 27.9995 55.0059C13.0878 55.0059 0.999512 42.9175 0.999512 28.0059C0.999512 13.0942 13.0878 1.00586 27.9995 1.00586C42.9112 1.00586 54.9995 13.0942 54.9995 28.0059Z" stroke="#F4F4F4" stroke-width="1.5" stroke-linejoin="round"/>
<path d="M23.4995 37.0059V19.0059L36.9995 28.0059L23.4995 37.0059Z" stroke="#F4F4F4" stroke-width="1.5" stroke-linejoin="round"/>
</svg>
