<svg xmlns="http://www.w3.org/2000/svg" xmlns:xlink="http://www.w3.org/1999/xlink" width="1366" zoomAndPan="magnify" viewBox="0 0 1024.5 576" height="768" preserveAspectRatio="xMidYMid meet" version="1.0"><defs><g/><clipPath id="6d39472f48"><path d="M 0 0.140625 L 1024 0.140625 L 1024 575.859375 L 0 575.859375 Z M 0 0.140625 " clip-rule="nonzero"/></clipPath></defs><g clip-path="url(#6d39472f48)"><path fill="#ffffff" d="M 0 0.140625 L 1024 0.140625 L 1024 575.859375 L 0 575.859375 Z M 0 0.140625 " fill-opacity="1" fill-rule="nonzero"/><path fill="#000000" d="M 0 0.140625 L 1024 0.140625 L 1024 575.859375 L 0 575.859375 Z M 0 0.140625 " fill-opacity="1" fill-rule="nonzero"/></g><g fill="#ffffff" fill-opacity="1"><g transform="translate(225.472963, 325.766853)"><g><path d="M 62.21875 -112.21875 C 71.207031 -112.21875 79.070312 -110.625 85.8125 -107.4375 C 92.550781 -104.25 98.164062 -99.988281 102.65625 -94.65625 C 107.15625 -89.332031 110.550781 -83.328125 112.84375 -76.640625 C 115.144531 -69.953125 116.296875 -63.054688 116.296875 -55.953125 C 116.296875 -48.847656 115.171875 -41.953125 112.921875 -35.265625 C 110.679688 -28.578125 107.3125 -22.566406 102.8125 -17.234375 C 98.320312 -11.910156 92.679688 -7.65625 85.890625 -4.46875 C 79.097656 -1.28125 71.207031 0.3125 62.21875 0.3125 C 53.132812 0.3125 45.222656 -1.28125 38.484375 -4.46875 C 31.742188 -7.65625 26.097656 -11.910156 21.546875 -17.234375 C 17.003906 -22.566406 13.609375 -28.578125 11.359375 -35.265625 C 9.117188 -41.953125 8 -48.847656 8 -55.953125 C 8 -63.054688 9.117188 -69.953125 11.359375 -76.640625 C 13.609375 -83.328125 17.003906 -89.332031 21.546875 -94.65625 C 26.097656 -99.988281 31.769531 -104.25 38.5625 -107.4375 C 45.351562 -110.625 53.238281 -112.21875 62.21875 -112.21875 Z M 62.21875 -17.390625 C 69.007812 -17.390625 74.832031 -18.773438 79.6875 -21.546875 C 84.550781 -24.316406 88.421875 -28 91.296875 -32.59375 C 94.171875 -37.195312 96.101562 -42.238281 97.09375 -47.71875 C 98.09375 -53.207031 98.09375 -58.664062 97.09375 -64.09375 C 96.101562 -69.53125 94.171875 -74.546875 91.296875 -79.140625 C 88.421875 -83.742188 84.550781 -87.429688 79.6875 -90.203125 C 74.832031 -92.972656 69.007812 -94.359375 62.21875 -94.359375 C 55.425781 -94.359375 49.625 -92.972656 44.8125 -90.203125 C 40.007812 -87.429688 36.144531 -83.742188 33.21875 -79.140625 C 30.300781 -74.546875 28.34375 -69.53125 27.34375 -64.09375 C 26.351562 -58.664062 26.351562 -53.207031 27.34375 -47.71875 C 28.34375 -42.238281 30.273438 -37.195312 33.140625 -32.59375 C 36.015625 -28 39.878906 -24.316406 44.734375 -21.546875 C 49.597656 -18.773438 55.425781 -17.390625 62.21875 -17.390625 Z M 62.21875 -17.390625 "/></g></g></g><g fill="#ffffff" fill-opacity="1"><g transform="translate(350.390084, 325.766853)"><g><path d="M 131.1875 0 L 112.84375 0 L 112.84375 -67.390625 L 81.34375 0 L 64.109375 0 L 30.5625 -68.8125 L 30.5625 0 L 12.21875 0 L 12.21875 -109.875 L 30.875 -109.875 L 72.5625 -24.453125 L 112.53125 -109.875 L 131.1875 -109.875 Z M 131.1875 0 "/></g></g></g><g fill="#ffffff" fill-opacity="1"><g transform="translate(493.958574, 325.766853)"><g><path d="M 30.71875 -18.34375 L 71.3125 -18.34375 L 71.3125 0 L 12.375 0 L 12.375 -109.71875 L 30.71875 -109.71875 Z M 30.71875 -18.34375 "/></g></g></g><g fill="#ffffff" fill-opacity="1"><g transform="translate(572.482393, 325.766853)"><g><path d="M 62.21875 -112.21875 C 71.207031 -112.21875 79.070312 -110.625 85.8125 -107.4375 C 92.550781 -104.25 98.164062 -99.988281 102.65625 -94.65625 C 107.15625 -89.332031 110.550781 -83.328125 112.84375 -76.640625 C 115.144531 -69.953125 116.296875 -63.054688 116.296875 -55.953125 C 116.296875 -48.847656 115.171875 -41.953125 112.921875 -35.265625 C 110.679688 -28.578125 107.3125 -22.566406 102.8125 -17.234375 C 98.320312 -11.910156 92.679688 -7.65625 85.890625 -4.46875 C 79.097656 -1.28125 71.207031 0.3125 62.21875 0.3125 C 53.132812 0.3125 45.222656 -1.28125 38.484375 -4.46875 C 31.742188 -7.65625 26.097656 -11.910156 21.546875 -17.234375 C 17.003906 -22.566406 13.609375 -28.578125 11.359375 -35.265625 C 9.117188 -41.953125 8 -48.847656 8 -55.953125 C 8 -63.054688 9.117188 -69.953125 11.359375 -76.640625 C 13.609375 -83.328125 17.003906 -89.332031 21.546875 -94.65625 C 26.097656 -99.988281 31.769531 -104.25 38.5625 -107.4375 C 45.351562 -110.625 53.238281 -112.21875 62.21875 -112.21875 Z M 62.21875 -17.390625 C 69.007812 -17.390625 74.832031 -18.773438 79.6875 -21.546875 C 84.550781 -24.316406 88.421875 -28 91.296875 -32.59375 C 94.171875 -37.195312 96.101562 -42.238281 97.09375 -47.71875 C 98.09375 -53.207031 98.09375 -58.664062 97.09375 -64.09375 C 96.101562 -69.53125 94.171875 -74.546875 91.296875 -79.140625 C 88.421875 -83.742188 84.550781 -87.429688 79.6875 -90.203125 C 74.832031 -92.972656 69.007812 -94.359375 62.21875 -94.359375 C 55.425781 -94.359375 49.625 -92.972656 44.8125 -90.203125 C 40.007812 -87.429688 36.144531 -83.742188 33.21875 -79.140625 C 30.300781 -74.546875 28.34375 -69.53125 27.34375 -64.09375 C 26.351562 -58.664062 26.351562 -53.207031 27.34375 -47.71875 C 28.34375 -42.238281 30.273438 -37.195312 33.140625 -32.59375 C 36.015625 -28 39.878906 -24.316406 44.734375 -21.546875 C 49.597656 -18.773438 55.425781 -17.390625 62.21875 -17.390625 Z M 62.21875 -17.390625 "/></g></g></g><g fill="#ffffff" fill-opacity="1"><g transform="translate(697.399514, 325.766853)"><g><path d="M 100.78125 -109.71875 L 59.5625 -51.875 L 59.5625 0 L 41.21875 0 L 41.21875 -51.875 L 0 -109.71875 L 22.40625 -109.71875 L 50.46875 -70.53125 L 78.375 -109.71875 Z M 100.78125 -109.71875 "/></g></g></g></svg>