<svg xmlns="http://www.w3.org/2000/svg" xmlns:xlink="http://www.w3.org/1999/xlink" width="1366" zoomAndPan="magnify" viewBox="0 0 1024.5 576" height="768" preserveAspectRatio="xMidYMid meet" version="1.0"><defs><g/><clipPath id="f2529aa1ae"><path d="M 0 0.140625 L 1024 0.140625 L 1024 575.859375 L 0 575.859375 Z M 0 0.140625 " clip-rule="nonzero"/></clipPath><clipPath id="ec10f145c4"><path d="M 396.855469 123.996094 L 627.144531 123.996094 L 627.144531 354.285156 L 396.855469 354.285156 Z M 396.855469 123.996094 " clip-rule="nonzero"/></clipPath><clipPath id="f66cd63422"><path d="M 512 123.996094 C 448.40625 123.996094 396.855469 175.546875 396.855469 239.140625 C 396.855469 302.734375 448.40625 354.285156 512 354.285156 C 575.59375 354.285156 627.144531 302.734375 627.144531 239.140625 C 627.144531 175.546875 575.59375 123.996094 512 123.996094 Z M 512 123.996094 " clip-rule="nonzero"/></clipPath><clipPath id="20f7060cc7"><path d="M 398 166 L 472 166 L 472 223 L 398 223 Z M 398 166 " clip-rule="nonzero"/></clipPath><clipPath id="0b55860109"><path d="M 398.210938 186.976562 L 409.71875 166.976562 L 471.125 202.3125 L 459.617188 222.308594 Z M 398.210938 186.976562 " clip-rule="nonzero"/></clipPath><clipPath id="77a2558540"><path d="M 425.640625 152.78125 L 598.359375 152.78125 L 598.359375 325.5 L 425.640625 325.5 Z M 425.640625 152.78125 " clip-rule="nonzero"/></clipPath><clipPath id="6b9cb9c7f6"><path d="M 512 152.78125 C 464.304688 152.78125 425.640625 191.445312 425.640625 239.140625 C 425.640625 286.835938 464.304688 325.5 512 325.5 C 559.695312 325.5 598.359375 286.835938 598.359375 239.140625 C 598.359375 191.445312 559.695312 152.78125 512 152.78125 Z M 512 152.78125 " clip-rule="nonzero"/></clipPath><clipPath id="c54507b401"><path d="M 441.066406 218.179688 L 584.996094 218.179688 L 584.996094 260.160156 L 441.066406 260.160156 Z M 441.066406 218.179688 " clip-rule="nonzero"/></clipPath><clipPath id="1daf8114a4"><path d="M 557 171 L 619 171 L 619 221 L 557 221 Z M 557 171 " clip-rule="nonzero"/></clipPath><clipPath id="f2600912a1"><path d="M 607.234375 171.507812 L 618.847656 191.441406 L 568.707031 220.65625 L 557.089844 200.71875 Z M 607.234375 171.507812 " clip-rule="nonzero"/></clipPath><clipPath id="5a28ab154d"><path d="M 500.464844 312.339844 L 523.535156 312.339844 L 523.535156 358.417969 L 500.464844 358.417969 Z M 500.464844 312.339844 " clip-rule="nonzero"/></clipPath></defs><g clip-path="url(#f2529aa1ae)"><path fill="#ffffff" d="M 0 0.140625 L 1024 0.140625 L 1024 575.859375 L 0 575.859375 Z M 0 0.140625 " fill-opacity="1" fill-rule="nonzero"/><path fill="#000000" d="M 0 0.140625 L 1024 0.140625 L 1024 575.859375 L 0 575.859375 Z M 0 0.140625 " fill-opacity="1" fill-rule="nonzero"/></g><g fill="#ffffff" fill-opacity="1"><g transform="translate(397.420658, 429.606516)"><g><path d="M 24.875 -44.875 C 28.46875 -44.875 31.613281 -44.234375 34.3125 -42.953125 C 37.007812 -41.679688 39.253906 -39.976562 41.046875 -37.84375 C 42.847656 -35.71875 44.207031 -33.316406 45.125 -30.640625 C 46.039062 -27.972656 46.5 -25.21875 46.5 -22.375 C 46.5 -19.53125 46.050781 -16.769531 45.15625 -14.09375 C 44.257812 -11.425781 42.910156 -9.023438 41.109375 -6.890625 C 39.316406 -4.765625 37.0625 -3.0625 34.34375 -1.78125 C 31.625 -0.507812 28.46875 0.125 24.875 0.125 C 21.238281 0.125 18.070312 -0.507812 15.375 -1.78125 C 12.6875 -3.0625 10.429688 -4.765625 8.609375 -6.890625 C 6.796875 -9.023438 5.441406 -11.425781 4.546875 -14.09375 C 3.648438 -16.769531 3.203125 -19.53125 3.203125 -22.375 C 3.203125 -25.21875 3.648438 -27.972656 4.546875 -30.640625 C 5.441406 -33.316406 6.796875 -35.71875 8.609375 -37.84375 C 10.429688 -39.976562 12.695312 -41.679688 15.40625 -42.953125 C 18.125 -44.234375 21.28125 -44.875 24.875 -44.875 Z M 24.875 -6.953125 C 27.59375 -6.953125 29.921875 -7.503906 31.859375 -8.609375 C 33.804688 -9.722656 35.351562 -11.195312 36.5 -13.03125 C 37.65625 -14.875 38.429688 -16.890625 38.828125 -19.078125 C 39.222656 -21.273438 39.222656 -23.457031 38.828125 -25.625 C 38.429688 -27.800781 37.65625 -29.804688 36.5 -31.640625 C 35.351562 -33.484375 33.804688 -34.957031 31.859375 -36.0625 C 29.921875 -37.175781 27.59375 -37.734375 24.875 -37.734375 C 22.164062 -37.734375 19.847656 -37.175781 17.921875 -36.0625 C 16.003906 -34.957031 14.457031 -33.484375 13.28125 -31.640625 C 12.113281 -29.804688 11.332031 -27.800781 10.9375 -25.625 C 10.539062 -23.457031 10.539062 -21.273438 10.9375 -19.078125 C 11.332031 -16.890625 12.101562 -14.875 13.25 -13.03125 C 14.40625 -11.195312 15.953125 -9.722656 17.890625 -8.609375 C 19.835938 -7.503906 22.164062 -6.953125 24.875 -6.953125 Z M 24.875 -6.953125 "/></g></g></g><g fill="#ffffff" fill-opacity="1"><g transform="translate(447.373661, 429.606516)"><g><path d="M 52.453125 0 L 45.125 0 L 45.125 -26.953125 L 32.53125 0 L 25.625 0 L 12.21875 -27.515625 L 12.21875 0 L 4.890625 0 L 4.890625 -43.9375 L 12.34375 -43.9375 L 29.015625 -9.78125 L 45 -43.9375 L 52.453125 -43.9375 Z M 52.453125 0 "/></g></g></g><g fill="#ffffff" fill-opacity="1"><g transform="translate(504.785135, 429.606516)"><g><path d="M 12.28125 -7.328125 L 28.515625 -7.328125 L 28.515625 0 L 4.953125 0 L 4.953125 -43.875 L 12.28125 -43.875 Z M 12.28125 -7.328125 "/></g></g></g><g fill="#ffffff" fill-opacity="1"><g transform="translate(536.185956, 429.606516)"><g><path d="M 24.875 -44.875 C 28.46875 -44.875 31.613281 -44.234375 34.3125 -42.953125 C 37.007812 -41.679688 39.253906 -39.976562 41.046875 -37.84375 C 42.847656 -35.71875 44.207031 -33.316406 45.125 -30.640625 C 46.039062 -27.972656 46.5 -25.21875 46.5 -22.375 C 46.5 -19.53125 46.050781 -16.769531 45.15625 -14.09375 C 44.257812 -11.425781 42.910156 -9.023438 41.109375 -6.890625 C 39.316406 -4.765625 37.0625 -3.0625 34.34375 -1.78125 C 31.625 -0.507812 28.46875 0.125 24.875 0.125 C 21.238281 0.125 18.070312 -0.507812 15.375 -1.78125 C 12.6875 -3.0625 10.429688 -4.765625 8.609375 -6.890625 C 6.796875 -9.023438 5.441406 -11.425781 4.546875 -14.09375 C 3.648438 -16.769531 3.203125 -19.53125 3.203125 -22.375 C 3.203125 -25.21875 3.648438 -27.972656 4.546875 -30.640625 C 5.441406 -33.316406 6.796875 -35.71875 8.609375 -37.84375 C 10.429688 -39.976562 12.695312 -41.679688 15.40625 -42.953125 C 18.125 -44.234375 21.28125 -44.875 24.875 -44.875 Z M 24.875 -6.953125 C 27.59375 -6.953125 29.921875 -7.503906 31.859375 -8.609375 C 33.804688 -9.722656 35.351562 -11.195312 36.5 -13.03125 C 37.65625 -14.875 38.429688 -16.890625 38.828125 -19.078125 C 39.222656 -21.273438 39.222656 -23.457031 38.828125 -25.625 C 38.429688 -27.800781 37.65625 -29.804688 36.5 -31.640625 C 35.351562 -33.484375 33.804688 -34.957031 31.859375 -36.0625 C 29.921875 -37.175781 27.59375 -37.734375 24.875 -37.734375 C 22.164062 -37.734375 19.847656 -37.175781 17.921875 -36.0625 C 16.003906 -34.957031 14.457031 -33.484375 13.28125 -31.640625 C 12.113281 -29.804688 11.332031 -27.800781 10.9375 -25.625 C 10.539062 -23.457031 10.539062 -21.273438 10.9375 -19.078125 C 11.332031 -16.890625 12.101562 -14.875 13.25 -13.03125 C 14.40625 -11.195312 15.953125 -9.722656 17.890625 -8.609375 C 19.835938 -7.503906 22.164062 -6.953125 24.875 -6.953125 Z M 24.875 -6.953125 "/></g></g></g><g fill="#ffffff" fill-opacity="1"><g transform="translate(586.138958, 429.606516)"><g><path d="M 40.296875 -43.875 L 23.8125 -20.75 L 23.8125 0 L 16.484375 0 L 16.484375 -20.75 L 0 -43.875 L 8.96875 -43.875 L 20.1875 -28.203125 L 31.34375 -43.875 Z M 40.296875 -43.875 "/></g></g></g><g clip-path="url(#ec10f145c4)"><g clip-path="url(#f66cd63422)"><path fill="#ffffff" d="M 396.855469 123.996094 L 627.144531 123.996094 L 627.144531 354.285156 L 396.855469 354.285156 Z M 396.855469 123.996094 " fill-opacity="1" fill-rule="nonzero"/></g></g><g clip-path="url(#20f7060cc7)"><g clip-path="url(#0b55860109)"><path fill="#000000" d="M 398.210938 186.976562 L 409.71875 166.976562 L 471.117188 202.304688 L 459.609375 222.304688 Z M 398.210938 186.976562 " fill-opacity="1" fill-rule="nonzero"/></g></g><g clip-path="url(#77a2558540)"><g clip-path="url(#6b9cb9c7f6)"><path fill="#000000" d="M 425.640625 152.78125 L 598.359375 152.78125 L 598.359375 325.5 L 425.640625 325.5 Z M 425.640625 152.78125 " fill-opacity="1" fill-rule="nonzero"/></g></g><g clip-path="url(#c54507b401)"><path fill="#ffffff" d="M 545.328125 260.089844 C 540.933594 260.089844 536.476562 259.488281 531.996094 258.289062 C 524.0625 256.167969 515.976562 252.132812 507.960938 246.296875 C 496.609375 238.027344 485.875 234.621094 476.066406 236.167969 C 470.675781 237.019531 465.578125 239.335938 460.914062 243.058594 C 457.234375 245.988281 455.230469 248.730469 455.207031 248.757812 L 455.242188 248.710938 L 441.246094 238.839844 C 441.550781 238.402344 444.394531 234.464844 449.582031 230.195312 C 452.617188 227.691406 455.890625 225.554688 459.402344 223.78125 C 463.734375 221.597656 468.292969 220.105469 473.078125 219.308594 C 479.882812 218.183594 486.929688 218.578125 494.023438 220.46875 C 501.949219 222.585938 510.03125 226.617188 518.042969 232.453125 C 532.078125 242.675781 545.085938 245.460938 556.714844 240.726562 C 565.683594 237.074219 570.824219 230.136719 570.875 230.070312 L 570.839844 230.113281 L 584.8125 240.023438 C 584.503906 240.457031 581.65625 244.386719 576.460938 248.636719 C 573.421875 251.132812 570.144531 253.261719 566.628906 255.023438 C 562.296875 257.199219 557.738281 258.683594 552.953125 259.476562 C 550.425781 259.886719 547.886719 260.089844 545.328125 260.089844 Z M 545.328125 260.089844 " fill-opacity="1" fill-rule="nonzero"/></g><g clip-path="url(#1daf8114a4)"><g clip-path="url(#f2600912a1)"><path fill="#000000" d="M 607.234375 171.507812 L 618.847656 191.441406 L 568.699219 220.660156 L 557.085938 200.722656 Z M 607.234375 171.507812 " fill-opacity="1" fill-rule="nonzero"/></g></g><g clip-path="url(#5a28ab154d)"><path fill="#000000" d="M 500.464844 312.339844 L 523.535156 312.339844 L 523.535156 358.390625 L 500.464844 358.390625 Z M 500.464844 312.339844 " fill-opacity="1" fill-rule="nonzero"/></g></svg>