<svg xmlns="http://www.w3.org/2000/svg" xmlns:xlink="http://www.w3.org/1999/xlink" width="500" zoomAndPan="magnify" viewBox="0 0 375 374.999991" height="500" preserveAspectRatio="xMidYMid meet" version="1.0"><defs><g/></defs><rect x="-37.5" width="450" fill="#ffffff" y="-37.499999" height="449.999989" fill-opacity="1"/><rect x="-37.5" width="450" fill="#000000" y="-37.499999" height="449.999989" fill-opacity="1"/><g fill="#ffffff" fill-opacity="1"><g transform="translate(0.925786, 212.08424)"><g><path d="M 40.515625 -73.078125 C 46.367188 -73.078125 51.488281 -72.035156 55.875 -69.953125 C 60.269531 -67.878906 63.925781 -65.109375 66.84375 -61.640625 C 69.769531 -58.171875 71.984375 -54.257812 73.484375 -49.90625 C 74.984375 -45.550781 75.734375 -41.0625 75.734375 -36.4375 C 75.734375 -31.8125 75 -27.320312 73.53125 -22.96875 C 72.070312 -18.613281 69.878906 -14.695312 66.953125 -11.21875 C 64.023438 -7.75 60.347656 -4.976562 55.921875 -2.90625 C 51.503906 -0.832031 46.367188 0.203125 40.515625 0.203125 C 34.597656 0.203125 29.441406 -0.832031 25.046875 -2.90625 C 20.660156 -4.976562 16.988281 -7.75 14.03125 -11.21875 C 11.070312 -14.695312 8.859375 -18.613281 7.390625 -22.96875 C 5.929688 -27.320312 5.203125 -31.8125 5.203125 -36.4375 C 5.203125 -41.0625 5.929688 -45.550781 7.390625 -49.90625 C 8.859375 -54.257812 11.070312 -58.171875 14.03125 -61.640625 C 16.988281 -65.109375 20.675781 -67.878906 25.09375 -69.953125 C 29.519531 -72.035156 34.660156 -73.078125 40.515625 -73.078125 Z M 40.515625 -11.328125 C 44.941406 -11.328125 48.734375 -12.226562 51.890625 -14.03125 C 55.054688 -15.832031 57.578125 -18.226562 59.453125 -21.21875 C 61.328125 -24.21875 62.585938 -27.503906 63.234375 -31.078125 C 63.878906 -34.648438 63.878906 -38.203125 63.234375 -41.734375 C 62.585938 -45.273438 61.328125 -48.539062 59.453125 -51.53125 C 57.578125 -54.53125 55.054688 -56.929688 51.890625 -58.734375 C 48.734375 -60.535156 44.941406 -61.4375 40.515625 -61.4375 C 36.097656 -61.4375 32.320312 -60.535156 29.1875 -58.734375 C 26.0625 -56.929688 23.546875 -54.53125 21.640625 -51.53125 C 19.734375 -48.539062 18.457031 -45.273438 17.8125 -41.734375 C 17.164062 -38.203125 17.164062 -34.648438 17.8125 -31.078125 C 18.457031 -27.503906 19.710938 -24.21875 21.578125 -21.21875 C 23.453125 -18.226562 25.972656 -15.832031 29.140625 -14.03125 C 32.304688 -12.226562 36.097656 -11.328125 40.515625 -11.328125 Z M 40.515625 -11.328125 "/></g></g></g><g fill="#ffffff" fill-opacity="1"><g transform="translate(82.266471, 212.08424)"><g><path d="M 85.421875 0 L 73.484375 0 L 73.484375 -43.890625 L 52.96875 0 L 41.75 0 L 19.90625 -44.8125 L 19.90625 0 L 7.953125 0 L 7.953125 -71.546875 L 20.109375 -71.546875 L 47.25 -15.921875 L 73.28125 -71.546875 L 85.421875 -71.546875 Z M 85.421875 0 "/></g></g></g><g fill="#ffffff" fill-opacity="1"><g transform="translate(175.752129, 212.08424)"><g><path d="M 20 -11.9375 L 46.4375 -11.9375 L 46.4375 0 L 8.0625 0 L 8.0625 -71.4375 L 20 -71.4375 Z M 20 -11.9375 "/></g></g></g><g fill="#ffffff" fill-opacity="1"><g transform="translate(226.88348, 212.08424)"><g><path d="M 40.515625 -73.078125 C 46.367188 -73.078125 51.488281 -72.035156 55.875 -69.953125 C 60.269531 -67.878906 63.925781 -65.109375 66.84375 -61.640625 C 69.769531 -58.171875 71.984375 -54.257812 73.484375 -49.90625 C 74.984375 -45.550781 75.734375 -41.0625 75.734375 -36.4375 C 75.734375 -31.8125 75 -27.320312 73.53125 -22.96875 C 72.070312 -18.613281 69.878906 -14.695312 66.953125 -11.21875 C 64.023438 -7.75 60.347656 -4.976562 55.921875 -2.90625 C 51.503906 -0.832031 46.367188 0.203125 40.515625 0.203125 C 34.597656 0.203125 29.441406 -0.832031 25.046875 -2.90625 C 20.660156 -4.976562 16.988281 -7.75 14.03125 -11.21875 C 11.070312 -14.695312 8.859375 -18.613281 7.390625 -22.96875 C 5.929688 -27.320312 5.203125 -31.8125 5.203125 -36.4375 C 5.203125 -41.0625 5.929688 -45.550781 7.390625 -49.90625 C 8.859375 -54.257812 11.070312 -58.171875 14.03125 -61.640625 C 16.988281 -65.109375 20.675781 -67.878906 25.09375 -69.953125 C 29.519531 -72.035156 34.660156 -73.078125 40.515625 -73.078125 Z M 40.515625 -11.328125 C 44.941406 -11.328125 48.734375 -12.226562 51.890625 -14.03125 C 55.054688 -15.832031 57.578125 -18.226562 59.453125 -21.21875 C 61.328125 -24.21875 62.585938 -27.503906 63.234375 -31.078125 C 63.878906 -34.648438 63.878906 -38.203125 63.234375 -41.734375 C 62.585938 -45.273438 61.328125 -48.539062 59.453125 -51.53125 C 57.578125 -54.53125 55.054688 -56.929688 51.890625 -58.734375 C 48.734375 -60.535156 44.941406 -61.4375 40.515625 -61.4375 C 36.097656 -61.4375 32.320312 -60.535156 29.1875 -58.734375 C 26.0625 -56.929688 23.546875 -54.53125 21.640625 -51.53125 C 19.734375 -48.539062 18.457031 -45.273438 17.8125 -41.734375 C 17.164062 -38.203125 17.164062 -34.648438 17.8125 -31.078125 C 18.457031 -27.503906 19.710938 -24.21875 21.578125 -21.21875 C 23.453125 -18.226562 25.972656 -15.832031 29.140625 -14.03125 C 32.304688 -12.226562 36.097656 -11.328125 40.515625 -11.328125 Z M 40.515625 -11.328125 "/></g></g></g><g fill="#ffffff" fill-opacity="1"><g transform="translate(308.224166, 212.08424)"><g><path d="M 65.625 -71.4375 L 38.78125 -33.78125 L 38.78125 0 L 26.84375 0 L 26.84375 -33.78125 L 0 -71.4375 L 14.59375 -71.4375 L 32.859375 -45.921875 L 51.03125 -71.4375 Z M 65.625 -71.4375 "/></g></g></g></svg>