<svg xmlns="http://www.w3.org/2000/svg" width="2401" height="1197" viewBox="0 0 2401 1197" version="1.1"><path d="M 270.083 0.391 C 270.313 0.606, 434.413 82.731, 634.750 182.891 L 999 365.001 999 182.500 L 999 0 634.333 0 C 433.767 0, 269.854 0.176, 270.083 0.391 M 1399 182.500 L 1399 365.001 1763.250 182.891 C 1963.588 82.731, 2127.688 0.606, 2127.917 0.391 C 2128.146 0.176, 1964.233 -0, 1763.667 -0 L 1399 0 1399 182.500 M 2133 266 L 1867.500 398.889 2133.250 398.945 L 2399 399 2399 266 C 2399 192.850, 2398.887 133.025, 2398.750 133.055 C 2398.613 133.086, 2279.025 192.911, 2133 266 M 0 266.500 L 0 399 265.250 398.945 L 530.500 398.889 266 266.500 C 120.525 193.686, 1.163 134.086, 0.750 134.055 C 0.337 134.025, 0 193.625, 0 266.500 M 0 931.500 C 0 1004.375, 0.337 1063.975, 0.750 1063.945 C 1.163 1063.914, 120.525 1004.314, 266 931.500 L 530.500 799.111 265.250 799.055 L 0 799 0 931.500 M 1868.083 799.391 C 1868.313 799.606, 1987.862 859.456, 2133.750 932.391 L 2399 1065.001 2399 932 L 2399 799 2133.333 799 C 1987.217 799, 1867.854 799.176, 1868.083 799.391 M 635 1015 L 271.500 1196.889 635.250 1196.945 L 999 1197 999 1015 C 999 914.900, 998.888 833.025, 998.750 833.055 C 998.612 833.086, 834.925 914.961, 635 1015 M 1399 1015 L 1399 1197 1762.667 1197 C 1962.683 1197, 2126.146 1196.824, 2125.917 1196.609 C 2125.688 1196.394, 1962.037 1114.494, 1762.250 1014.609 L 1399 832.999 1399 1015" stroke="none" fill="#012169" fill-rule="evenodd"/><path d="M 3 0.500 C 3 0.775, 181.987 90.525, 400.750 199.944 L 798.500 398.889 709.249 398.945 L 619.999 399 309.999 244 L 0 88.999 0 111.251 L -0 133.502 265.250 266.195 L 530.500 398.889 265.250 398.944 L 0 399 0 439 L 0 479 539.500 479 L 1079 479 1079 239.500 L 1079 0 1039 0 L 999 0 999 182.500 L 999 365.001 634.001 182.500 L 269.001 0 136.001 0 C 62.850 0, 3 0.225, 3 0.500 M 1319 239.500 L 1319 479 1859 479 L 2399 479 2399 599 L 2399 719 1859 719 L 1319 719 1319 958 L 1319 1197 1359 1197 L 1399 1197 1399 1015 L 1399 832.999 1762.999 1015 L 2126.999 1197 2260.749 1196.945 L 2394.500 1196.889 1997 998 L 1599.500 799.111 1688.750 799.055 L 1777.999 799 2088.500 954.249 L 2399 1109.498 2399 1153.333 C 2399 1187.955, 2399.263 1197.079, 2400.250 1196.750 C 2401.246 1196.418, 2401.463 1147.692, 2401.316 956.917 C 2401.215 825.237, 2401.103 556.063, 2401.066 358.750 C 2401 0.659, 2400.996 0, 2399 0 C 2397.899 0, 2217.449 89.775, 1998 199.500 L 1599.001 399 1509.750 398.945 L 1420.500 398.889 1819 199.500 L 2217.500 0.111 2173.249 0.055 L 2128.999 -0 1763.999 182.500 L 1399 365.001 1399 182.500 L 1399 0 1359 0 L 1319 0 1319 239.500 M 2133 266 L 1867.500 398.889 2133.250 398.945 L 2399 399 2399 266 C 2399 192.850, 2398.887 133.025, 2398.750 133.055 C 2398.613 133.086, 2279.025 192.911, 2133 266 M 1 759 L 1 799 265.750 799.055 L 530.500 799.111 265.750 931.556 L 1 1064.001 1 1130.500 C 1 1174.189, 1.343 1197, 2.001 1197 C 2.551 1197, 182.101 1107.450, 401 998 L 798.999 799 888.249 799.055 L 977.500 799.111 580 998 L 182.500 1196.889 226.751 1196.945 L 271.001 1197 635.001 1015 L 999 832.999 999 1015 L 999 1197 1039 1197 L 1079 1197 1079 958 L 1079 719 540 719 L 1 719 1 759 M 1868.083 799.391 C 1868.313 799.606, 1987.862 859.456, 2133.750 932.391 L 2399 1065.001 2399 932 L 2399 799 2133.333 799 C 1987.217 799, 1867.854 799.176, 1868.083 799.391" stroke="none" fill="#fbfbfb" fill-rule="evenodd"/><path d="M 0.968 1.432 C 0.374 2.026, -0 19.114, -0 45.700 L -0 88.999 310.010 244.005 L 620.020 399.011 709.009 398.755 L 797.998 398.500 399.967 199.482 C 143.322 71.157, 1.593 0.807, 0.968 1.432 M 1079 239.500 L 1079 479 539.500 479 L 0 479 0 599 L 0 719 539.500 719 L 1079 719 1079 958 L 1079 1197 1199 1197 L 1319 1197 1319 958 L 1319 719 1859 719 L 2399 719 2399 599 L 2399 479 1859 479 L 1319 479 1319 239.500 L 1319 0 1199 0 L 1079 0 1079 239.500 M 1819 199.500 L 1420.500 398.889 1510 398.889 L 1599.500 398.889 1998 199.500 L 2396.500 0.111 2307 0.111 L 2217.500 0.111 1819 199.500 M 401 998 L 3.500 1196.889 93 1196.889 L 182.500 1196.889 580 998 L 977.500 799.111 888 799.111 L 798.500 799.111 401 998 M 1997 998 C 2215.625 1107.389, 2395.512 1196.914, 2396.750 1196.945 L 2399 1197 2399 1153.249 L 2399 1109.498 2088.500 954.249 L 1777.999 799 1688.750 799.055 L 1599.500 799.111 1997 998" stroke="none" fill="#cb142c" fill-rule="evenodd"/></svg>